<?xml version="1.0" encoding="utf-8"?>
<!-- Generator: Adobe Illustrator 25.0.1, SVG Export Plug-In . SVG Version: 6.00 Build 0)  -->
<svg version="1.1" id="Слой_1" xmlns="http://www.w3.org/2000/svg" xmlns:xlink="http://www.w3.org/1999/xlink" x="0px" y="0px"
	 viewBox="0 0 256 256" style="enable-background:new 0 0 256 256;" xml:space="preserve">
<style type="text/css">
	.st0{fill-rule:evenodd;clip-rule:evenodd;}
</style>
<path class="st0" d="M142.3,59h-6.5c-2.2,0-4-1.8-4-4V22c0-2.2,1.8-4,4-4h6.5c2.2,0,4,1.8,4,4v33C146.3,57.2,144.5,59,142.3,59z"/>
<path class="st0" d="M102.7,60.2l-4.2,1.6h-7.4L79.5,41.2c-1.1-1.9-0.4-4.4,1.5-5.5l5.7-3.3c1.9-1.1,4.4-0.4,5.5,1.5l12,20.8
	C105.2,56.7,104.6,59.1,102.7,60.2z"/>
<path class="st0" d="M178.5,61.8l-3.6-2.3c-1.9-1.2-2.4-3.6-1.2-5.5l12.8-20.3c1.2-1.9,3.6-2.4,5.5-1.2l5.5,3.5
	c1.9,1.2,2.4,3.6,1.2,5.5L186,61.7C178.5,61.8,178.5,61.8,178.5,61.8z"/>
<path class="st0" d="M205.9,121l38.9,0.3c2.2,0,4,1.8,4,4v6.5c0,2.2-1.8,4-4,4l-38.9-0.3"/>
<path class="st0" d="M205.9,82.4l22.6-11.9c2-1,4.4-0.2,5.4,1.7l2.7,5.3c1,2,0.2,4.4-1.7,5.4l-29,13"/>
<path class="st0" d="M205.9,159.5l28.7,16.9c1.9,1.1,2.6,3.6,1.5,5.5l-3,5.1c-1.1,1.9-3.6,2.6-5.5,1.5l-21.7-13.1"/>
<path class="st0" d="M142.3,241h-6.5c-2.2,0-4-1.8-4-4v-33c0-2.2,1.8-4,4-4h6.5c2.2,0,4,1.8,4,4v33C146.3,239.2,144.5,241,142.3,241
	z"/>
<path class="st0" d="M176.4,200h4.6l7.3-0.1l10.4,19.9c1,2,0.2,4.4-1.7,5.4l-5.8,3c-2,1-4.4,0.2-5.4-1.7l-11-21.4
	C173.8,203.1,174.4,201,176.4,200z"/>
<path class="st0" d="M97.7,200l2.4,1c2,0.9,3,3.2,2.1,5.3l-9.5,22c-0.9,2-3.2,3-5.3,2.1l-6-2.6c-2-0.9-3-3.2-2.1-5.3L89,200H97.7z"
	/>
<g>
	<polygon points="72.1,160.2 72.1,139.5 60.2,160.2 	"/>
	<circle cx="141" cy="111.5" r="5"/>
	<circle cx="114.1" cy="111.5" r="5"/>
	<path d="M187.8,73.3H13.1C9.7,73.3,7,76,7,79.4v51.3v50.1c0,3.4,2.7,6.1,6.1,6.1h173.3h1.2c3.4,0,6.1-2.7,6.1-6.1l0.1-101.5
		C193.8,76,191.1,73.3,187.8,73.3z M43.9,171.4c0,0.4-0.1,0.7-0.1,1c-0.1,0.3-0.1,0.5-0.2,0.7c-0.1,0.2-0.3,0.4-0.5,0.6
		c-0.2,0.2-0.7,0.6-1.4,0.9c-0.6,0.4-1.4,0.7-2.2,1s-1.7,0.5-2.7,0.7s-2,0.3-3,0.3c-2.3,0-4.3-0.4-6.1-1.1s-3.3-1.8-4.5-3.2
		c-1.2-1.4-2.1-3.1-2.7-5.1s-0.9-4.3-0.9-6.9c0-3,0.4-5.6,1.1-7.8c0.7-2.2,1.8-4,3.1-5.4c1.3-1.4,2.9-2.5,4.8-3.2c1.8-0.7,3.8-1,6-1
		c0.9,0,1.8,0.1,2.6,0.2c0.9,0.2,1.7,0.4,2.4,0.6c0.7,0.3,1.4,0.6,2,0.9c0.6,0.3,1,0.6,1.3,0.9c0.2,0.2,0.4,0.5,0.5,0.6
		c0.1,0.1,0.2,0.4,0.2,0.7c0.1,0.3,0.1,0.6,0.1,1c0,0.4,0.1,0.9,0.1,1.4c0,1.3-0.1,2.2-0.3,2.7s-0.5,0.8-0.9,0.8
		c-0.4,0-0.8-0.2-1.2-0.5c-0.4-0.3-0.9-0.7-1.5-1c-0.6-0.4-1.3-0.7-2.1-1c-0.8-0.3-1.8-0.5-2.9-0.5c-2.2,0-3.9,0.8-5,2.5
		c-1.1,1.7-1.7,4.2-1.7,7.4c0,1.6,0.1,3,0.4,4.3c0.3,1.2,0.7,2.3,1.3,3.1c0.6,0.8,1.3,1.5,2.1,1.9c0.9,0.4,1.9,0.6,3,0.6
		c1.2,0,2.2-0.2,3-0.5c0.8-0.3,1.6-0.7,2.2-1.2c0.6-0.4,1.2-0.8,1.6-1.2c0.4-0.3,0.8-0.5,1.1-0.5c0.2,0,0.4,0.1,0.5,0.2
		c0.1,0.1,0.2,0.3,0.3,0.6c0.1,0.3,0.1,0.7,0.2,1.2c0.1,0.5,0.1,1.1,0.1,1.8C44,170.5,44,171,43.9,171.4z M85.8,166.6
		c-0.3,0.6-0.6,0.9-1,0.9h-4v8.1c0,0.2-0.1,0.4-0.2,0.6c-0.1,0.2-0.4,0.3-0.7,0.4c-0.3,0.1-0.8,0.2-1.4,0.3
		c-0.6,0.1-1.3,0.1-2.2,0.1c-0.8,0-1.5,0-2.1-0.1c-0.6-0.1-1-0.1-1.4-0.3c-0.3-0.1-0.6-0.3-0.7-0.4c-0.1-0.2-0.2-0.4-0.2-0.6v-8.1
		h-17c-0.3,0-0.6,0-0.9-0.1c-0.3-0.1-0.5-0.3-0.6-0.6c-0.2-0.3-0.3-0.7-0.4-1.3c-0.1-0.5-0.1-1.3-0.1-2.2c0-0.7,0.1-1.9,0.1-1.9
		s0.1-1,0.2-1.5c0.1-0.4,0.2-0.9,0.3-1.3c0.2-0.4,0.3-0.8,0.6-1.3l14-24.6c0.1-0.2,0.3-0.4,0.6-0.5c0.3-0.2,0.7-0.3,1.2-0.4
		c0.5-0.1,1.1-0.2,1.9-0.2c0.8,0,1.7-0.1,2.8-0.1c1.2,0,2.2,0,3,0.1c0.8,0.1,1.5,0.2,2,0.3c0.5,0.1,0.9,0.3,1.1,0.5s0.3,0.4,0.3,0.7
		v27.1h4c0.4,0,0.7,0.3,1,0.9c0.1,0.5,0.2,1.5,0.2,2.8C86.2,165.1,86.1,166,85.8,166.6z M112.9,175.9H99V162h13.9V175.9z M113,154.5
		H99.1v-13.9H113V154.5z M132.4,175.9h-13.9V162h13.9V175.9z M132.4,154.5h-13.9v-13.9h13.9V154.5z M152,175.9h-13.9V162H152V175.9z
		 M152,154.5h-13.9v-13.9H152V154.5z M171.5,175.9h-13.9V162h13.9V175.9z M171.5,154.5h-13.9v-13.9h13.9V154.5z M171.5,135.5H98.8
		V87.3h72.7V135.5z"/>
	<path d="M127.6,116.5c2.7,0,5-2.2,5-5s-2.3-5.1-5-5c-2.7,0-5,2.2-5,5C122.6,114.2,124.8,116.5,127.6,116.5z"/>
</g>
</svg>
