<?xml version="1.0" encoding="utf-8"?>
<!-- Generator: Adobe Illustrator 25.0.1, SVG Export Plug-In . SVG Version: 6.00 Build 0)  -->
<svg version="1.1" id="Слой_1" xmlns="http://www.w3.org/2000/svg" xmlns:xlink="http://www.w3.org/1999/xlink" x="0px" y="0px"
	 viewBox="0 0 256 256" style="enable-background:new 0 0 256 256;" xml:space="preserve">
<g>
	<g>
		<g id="Layer_1_64_">
			<g>
				<path d="M125.7,122.1c0,2.9,2.3,5.2,5.2,5.2c2.9,0,5.2-2.3,5.2-5.2c0-6.1,2.2-12,6.1-16.7c8.7-10.4,15.3-21.6,19.5-33.4
					c0.6-1.6,0.3-3.4-0.7-4.7c-1-1.4-2.5-2.2-4.3-2.2h-51.7c-1.7,0-3.3,0.8-4.3,2.2s-1.2,3.1-0.7,4.7c4.2,11.8,10.7,23,19.5,33.4
					C123.5,110.1,125.7,116,125.7,122.1z"/>
				<path d="M136.1,143c0-2.9-2.3-5.2-5.2-5.2c-2.9,0-5.2,2.3-5.2,5.2c0,7.5-4.5,15-12.7,21c-17.4,12.9-30.5,26.8-38.8,41.6
					c-0.9,1.6-0.9,3.6,0,5.2c0.9,1.6,2.6,2.6,4.5,2.6h104.2c1.8,0,3.6-1,4.5-2.6c0.9-1.6,1-3.6,0-5.2c-8.3-14.7-21.4-28.7-38.8-41.6
					C140.6,158,136.1,150.5,136.1,143z"/>
				<path d="M222,221.1h-3.1c-3.6-40.5-27.3-71.7-45.8-93.8c18.5-22.1,42.2-53.2,45.8-93.8h3.1c5.8,0,10.4-4.7,10.4-10.4
					s-4.7-10.4-10.4-10.4H39.7c-5.8,0-10.4,4.7-10.4,10.4c0,5.8,4.7,10.4,10.4,10.4h3.1c3.6,40.5,27.3,71.7,45.8,93.8
					c-18.5,22.1-42.2,53.2-45.8,93.8h-3.1c-5.8,0-10.4,4.7-10.4,10.4c0,5.8,4.7,10.4,10.4,10.4h13H209h13c5.8,0,10.4-4.7,10.4-10.4
					S227.8,221.1,222,221.1z M63.7,221.1c3.9-36.6,27.7-64.8,45.5-85.9l1-1.1c3.3-3.9,3.3-9.5,0-13.4l-0.9-1.1
					C91.5,98.5,67.6,70.3,63.7,33.6H198c-3.9,36.6-27.7,64.8-45.5,85.9l-0.9,1.1c-3.3,3.9-3.3,9.5,0,13.4l1,1.1
					c17.8,21.1,41.6,49.3,45.5,85.9H63.7z"/>
			</g>
		</g>
	</g>
</g>
</svg>
