<?xml version="1.0" encoding="UTF-8"?>
<svg id="svg19" width="16" height="22" version="1.1" viewBox="0 0 16 22" xmlns="http://www.w3.org/2000/svg"><g id="layer1"><g id="g230" transform="matrix(.081989 0 0 .081989 -2.4042 1.5018)"><path id="path186" d="m212 86v-18.5l.2-23.4h-84.2v-3.4c0-1.9-.4-3.7-.9-4s-1.2-2.3-1.5-4.5c-.6-3.5-1.2-4.2-5.3-6.2-11.6-5.6-41.1-8.7-52.4-5.5-7.2 2.1-9.8 3.3-14.7 7-9.5 7.4-15.3 18.5-17.2 33.8-1.3 10.6-1.3 63.5 0 75.2 1.4 12.6 4.6 21.8 9.3 27.2 4.9 5.5 8.3 7.3 14 7.3 2.5 0 5.6.4 7 1l2.6 1v65h143.1v-98h9v-54zm-140.8-41.9h-2.2v123.9h-5.8c-20.6-.1-25.8-15.8-25-75.5.5-34 1.4-40.7 7.4-51.7 4.9-9.1 15.6-16.3 26.1-17.6 13.2-1.7 37.9 1.2 46.8 5.4 3.4 1.6 5.3 5.9 3.5 7.7-.6.6-1.1 2.5-1.1 4.4v3.3h-23.6zm115.8 118.9v44h-75v-88h75zm7.1-67.6h-97.9v-28.1h97.9z"/><rect id="rect188" x="124.9" y="128" width="12" height="11"/><rect id="rect190" x="145.1" y="127.9" width="12" height="11"/><rect id="rect192" x="124.9" y="147" width="12" height="11"/><rect id="rect194" x="124.9" y="166" width="12" height="11"/><rect id="rect196" x="124.9" y="185" width="12" height="11"/><rect id="rect198" x="165.3" y="127.9" width="12" height="11"/><rect id="rect200" x="165.3" y="147" width="12" height="11"/><rect id="rect202" x="165.3" y="166" width="12" height="11"/><rect id="rect204" x="165.3" y="185" width="12" height="11"/><rect id="rect206" x="145.1" y="147" width="12" height="11"/><rect id="rect208" x="145.1" y="166" width="12" height="11"/><rect id="rect210" x="145.1" y="185" width="12" height="11"/></g></g></svg>
