<?xml version="1.0" encoding="utf-8"?>
<!-- Generator: Adobe Illustrator 25.0.1, SVG Export Plug-In . SVG Version: 6.00 Build 0)  -->
<svg version="1.1" id="Слой_1" xmlns="http://www.w3.org/2000/svg" xmlns:xlink="http://www.w3.org/1999/xlink" x="0px" y="0px"
	 viewBox="0 0 256 256" style="enable-background:new 0 0 256 256;" xml:space="preserve">
<style type="text/css">
	.st0{fill-rule:evenodd;clip-rule:evenodd;fill:#231F20;}
</style>
<path class="st0" d="M87,230.9H52c-8.3,0-15-6.7-15-15V39.1c0-8.3,6.7-15,15-15H87c8.3,0,15,6.7,15,15v176.8
	C102,224.2,95.3,230.9,87,230.9z"/>
<path class="st0" d="M192.5,230.9h-35c-8.3,0-15-6.7-15-15V39.2c0-8.3,6.7-15,15-15h35c8.3,0,15,6.7,15,15v176.7
	C207.5,224.2,200.8,230.9,192.5,230.9z"/>
</svg>
