<?xml version="1.0" encoding="UTF-8"?>
<!-- Generator: Adobe Illustrator 25.0.1, SVG Export Plug-In . SVG Version: 6.00 Build 0)  -->
<svg id="Слой_1" style="enable-background:new 0 0 256 256" version="1.1" viewBox="0 0 256 256" xml:space="preserve" xmlns="http://www.w3.org/2000/svg">
<path id="path9" d="m227 58.5c-32.9-65.3-103.2-58.3-103.2-58.3-54.7-2.1-84.2 39-94.5 57.3-2.8 5.1-4.3 10.9-4.3 16.7v98.4c0 3.4 1.5 6.6 4.2 8.8l50.8 41.3c1.7 1.4 2.7 3.5 2.8 5.7l.4 28h87.8l-.4-28.4c0-2.4 1.1-4.6 2.9-6.1l52.8-40.6c2.8-2.1 4.4-5.4 4.4-9v-98.5c0-5.3-1.3-10.6-3.7-15.3zm-162.5 95.2c-17.1-8.4-22.8-31.9-12.7-52.5 10-20.6 32.1-30.5 49.2-22.1s22.8 31.9 12.7 52.5c-10 20.6-32.1 30.5-49.2 22.1zm84.9 50.6h-44c-12.8-5.6 17.8-33.5 22-33.6s36.2 26.8 22 33.6zm41.4-50.6c-17.1 8.4-39.2-1.5-49.3-22.1s-4.4-44.1 12.7-52.5 39.2 1.5 49.3 22.1 4.4 44.1-12.7 52.5z"/>
<path id="path364" d="m83.274 249.62c-.1147-3.683-.21202-9.9841-.21628-14.002-.0082-7.7732-.22065-9.4913-1.3944-11.277-.42272-.64329-11.809-10.129-26.645-22.197-14.249-11.591-26.344-21.551-26.878-22.135-1.3809-1.5085-1.9208-2.4703-2.495-4.4454-.45342-1.5597-.49336-6.9505-.40064-54.076.1137-57.789-.05134-53.187 2.1234-59.197 1.782-4.9247 7.8745-14.593 14.127-22.417 4.1405-5.1817 12.931-14.058 17.678-17.851 15.579-12.447 33.404-19.746 52.213-21.381 6.4394-.55967 24.897-.47563 30.22.13759 34.057 3.9236 60.772 19.622 78.378 46.056 3.953 5.9352 7.4364 12.442 8.7873 16.414 1.8356 5.3968 1.788 3.7031 1.688 60.165l-.0917 51.738-.83792 1.7872c-.46086.98298-1.3918 2.3358-2.0688 3.0062-.67701.67041-13.116 10.354-27.642 21.519-14.526 11.165-26.786 20.705-27.245 21.201-2.1035 2.2743-2.0263 1.525-1.8946 18.385l.11929 15.268h-87.317zm67.394-45.906c.56713-.38861 1.3413-1.2584 1.7203-1.9328 1.0595-1.8851.76188-5.1524-.7474-8.2062-2.2344-4.521-7.6597-10.889-13.658-16.03-5.7941-4.9664-9.357-7.1881-11-6.8594-3.1358.62715-14.182 10.601-19.315 17.44-5.5936 7.4531-6.8763 12.261-4.0304 15.107l1.1875 1.1875h44.812zm-66.495-47.602c21.294-4.1668 37.581-28.745 34.203-51.616-1.1815-7.9999-4.436-14.808-9.4982-19.871-9.0628-9.0628-22.295-11.135-35.138-5.5029-4.6975 2.0602-8.3682 4.6584-12.69 8.9824-7.1006 7.1043-11.635 15.645-13.628 25.667-.79142 3.98-.80742 12.901-.0296 16.504 1.6064 7.4403 4.5433 13.181 9.0963 17.779 7.2122 7.2841 17.03 10.142 27.684 8.0568zm96.921.50032c3.8969-.43453 8.0257-1.7611 11.46-3.6822 3.592-2.0092 8.6891-7.0518 10.823-10.707 4.1033-7.0294 5.8896-15.554 5.0444-24.075-2.0414-20.579-16.365-37.606-35.012-41.621-3.1328-.67447-10.573-.49798-13.607.32276-2.8194.76278-6.9738 2.6494-9.2588 4.2047-2.1676 1.4754-5.942 5.1898-7.5103 7.3909-9.4618 13.28-8.728 33.443 1.7906 49.204 2.5355 3.7992 7.6675 9.1352 11.259 11.706 5.3574 3.8354 12.353 6.6584 17.964 7.2489 3.6422.38335 3.679.38339 7.0476.008z" style="fill:#ffffff;stroke-width:.31644"/></svg>
