<?xml version="1.0" encoding="utf-8"?>
<!-- Generator: Adobe Illustrator 25.0.1, SVG Export Plug-In . SVG Version: 6.00 Build 0)  -->
<svg version="1.1" id="Слой_1" xmlns="http://www.w3.org/2000/svg" xmlns:xlink="http://www.w3.org/1999/xlink" x="0px" y="0px"
	 viewBox="0 0 256 256" style="enable-background:new 0 0 256 256;" xml:space="preserve">
<path d="M212,86V67.5l0.2-23.4l-5.1,0h-39.5H128v-3.4c0-1.9-0.4-3.7-0.9-4c-0.5-0.3-1.2-2.3-1.5-4.5c-0.6-3.5-1.2-4.2-5.3-6.2
	c-11.6-5.6-41.1-8.7-52.4-5.5c-7.2,2.1-9.8,3.3-14.7,7C43.7,34.9,37.9,46,36,61.3c-1.3,10.6-1.3,63.5,0,75.2
	c1.4,12.6,4.6,21.8,9.3,27.2c4.9,5.5,8.3,7.3,14,7.3c2.5,0,5.6,0.4,7,1l2.6,1V203v35h2.7h2.6h66.3h66.3h2.6h2.6v-52.1V140h2.6l6.4,0
	v-27.4V86H212z M71.2,44.1H69v64V168l-5.8,0c-20.6-0.1-25.8-15.8-25-75.5c0.5-34,1.4-40.7,7.4-51.7c4.9-9.1,15.6-16.3,26.1-17.6
	c13.2-1.7,37.9,1.2,46.8,5.4c3.4,1.6,5.3,5.9,3.5,7.7c-0.6,0.6-1.1,2.5-1.1,4.4V44H97.3L71.2,44.1z M187,163v44h-37.5H112v-44v-44
	h37.5H187V163z M194.1,95.4H96.2V67.3h97.9V95.4z"/>
<rect x="124.9" y="128" width="12" height="11"/>
<rect x="145.1" y="127.9" width="12" height="11"/>
<rect x="124.9" y="147" width="12" height="11"/>
<rect x="124.9" y="166" width="12" height="11"/>
<rect x="124.9" y="185" width="12" height="11"/>
<rect x="165.3" y="127.9" width="12" height="11"/>
<rect x="165.3" y="147" width="12" height="11"/>
<rect x="165.3" y="166" width="12" height="11"/>
<rect x="165.3" y="185" width="12" height="11"/>
<rect x="145.1" y="147" width="12" height="11"/>
<rect x="145.1" y="166" width="12" height="11"/>
<rect x="145.1" y="185" width="12" height="11"/>
</svg>
