<?xml version="1.0" encoding="utf-8"?>
<!-- Generator: Adobe Illustrator 25.0.1, SVG Export Plug-In . SVG Version: 6.00 Build 0)  -->
<svg version="1.1" id="Слой_1" xmlns="http://www.w3.org/2000/svg" xmlns:xlink="http://www.w3.org/1999/xlink" x="0px" y="0px"
	 viewBox="0 0 316 154" style="enable-background:new 0 0 316 154;" xml:space="preserve">
<style type="text/css">
	.st0{fill-rule:evenodd;clip-rule:evenodd;fill:#FFFFFF;}
</style>
<path class="st0" d="M161.4,51.6V40.7c-0.2,0.2-0.3-0.2-0.3-0.9c0-1-0.5-1.8-1.1-1.8s-1-0.9-1-1.9s-0.7-2.2-1.6-2.5
	c-2.1-0.8-6.9-0.8-7.8,0.1c-0.4,0.4-0.7,1.5-0.7,2.6c0,1.9-1.2,1.9-50.5,1.6c-38.7-0.3-50.7-0.6-51.7-1.6C46.2,35.6,45.3,35,45,35
	c-0.3,0-1.7,3.6-3,8c-1.4,4.4-3,8-3.5,8c-0.6,0-1.9-0.7-3-1.5c-2.5-1.9-3.4-1.9-3.4,0c0,0.8-1.1,2-2.5,2.5c-4.8,1.8-2.1,5,4.3,5h4.4
	l-0.6,3.3c-0.3,1.8-0.9,4.2-1.2,5.4c-0.6,1.9-0.1,2.4,3.6,3.4c2.3,0.7,4.9,2.3,5.7,3.6c1.4,2.2,1.3,2.9-2.1,10.4
	c-4.3,9.4-8.4,26.4-8.7,36.4l-0.2,7l4.4,0.7c2.4,0.4,10.2,0.7,17.2,0.8c12.5,0.1,12.8,0,12.2-2c-0.4-1.1,1.3-10.9,3.7-21.6l4.3-19.6
	l6.5,0.8c3.6,0.4,11.7,0.8,18,0.9l11.5,0.1l2.5-5c1.4-2.8,3.5-7.4,4.7-10.3l2.2-5.3h18.9h18.9l1.1-3.5c0.6-1.9,0.9-5.4,0.7-7.8
	C161.2,52.9,161.2,51.6,161.4,51.6z M113.4,78l-2.6,7.1l-11.1-0.2c-13.1-0.2-17.8-1.7-19.9-6.1c-2.2-4.6-0.8-7.6,5.2-10.8
	c2-1,5-1.9,6.8-1.9l3.2,0l-1.5,3.6c-0.8,2-1.3,4.6-1,5.8C93.3,79,97,83,99.3,83c2.1,0,2.1-0.1,0.2-1.1c-5-2.7-5.8-7.3-2.3-12.5
	c2.1-3.2,2.5-3.3,8.6-3.3c6.7,0,10.2,1.2,10.2,3.5C116,70.3,114.8,74.1,113.4,78z"/>
</svg>
